<svg xmlns="http://www.w3.org/2000/svg" xmlns:xlink="http://www.w3.org/1999/xlink" width="30" height="36" viewBox="0 0 30 36">
    <defs>
        <path id="hhrd828swa" d="M2.98.015L.527 1.802c-.137.1-.295.154-.47.16L2.512.177c.174-.006.332-.061.47-.161z"/>
    </defs>
    <g fill="none" fill-rule="evenodd">
        <g>
            <g>
                <g>
                    <g>
                        <g>
                            <g>
                                <g>
                                    <path fill="#767677" fill-rule="nonzero" d="M3 23L5.388 21.195 7 20 4.612 21.805z" transform="translate(-146 -289) translate(0 34) translate(16 200) translate(26 55) translate(104)"/>
                                    <path fill="#D9D9DB" fill-rule="nonzero" d="M2 18.61L5.189 17 10 19.39 6.811 21z" transform="translate(-146 -289) translate(0 34) translate(16 200) translate(26 55) translate(104)"/>
                                    <path fill="#BCBBBB" fill-rule="nonzero" d="M8.001 23.731L11 22 10.999 27.269 8 29z" transform="translate(-146 -289) translate(0 34) translate(16 200) translate(26 55) translate(104)"/>
                                    <path fill="#757576" fill-rule="nonzero" d="M13.599 30.791L16 29 14.401 30.209 12 32z" transform="translate(-146 -289) translate(0 34) translate(16 200) translate(26 55) translate(104)"/>
                                    <path fill="#B5B5B6" fill-rule="nonzero" d="M14.009 32.38L17 31 16.991 33.62 14 35z" transform="translate(-146 -289) translate(0 34) translate(16 200) translate(26 55) translate(104)"/>
                                    <path fill="#BCBBBB" fill-rule="nonzero" d="M0 9.542L2.563 8 5 9.458 2.437 11zM17.143 34.081L20 32 18.857 32.919 16 35z" transform="translate(-146 -289) translate(0 34) translate(16 200) translate(26 55) translate(104)"/>
                                    <path fill="#E8E8EA" fill-rule="nonzero" d="M14 29.658L16.877 28 20 33.342 17.123 35z" transform="translate(-146 -289) translate(0 34) translate(16 200) translate(26 55) translate(104)"/>
                                    <path fill="#BCBBBB" fill-rule="nonzero" d="M1 8L3.799 6.528 5 6 2.201 7.472z" transform="translate(-146 -289) translate(0 34) translate(16 200) translate(26 55) translate(104)"/>
                                    <path fill="#E8E8EA" fill-rule="nonzero" d="M3.303 6.269L6.52 6.249 6.483 12.208 3.265 12.228z" transform="translate(-146 -289) translate(0 34) translate(16 200) translate(26 55) translate(104) rotate(149.871 4.893 9.239)"/>
                                    <path fill="#BCBBBB" fill-rule="nonzero" d="M7 21L9.686 19.645 13 18 10.314 19.355zM14.017 22.813L17 21 16.983 27.187 14 29z" transform="translate(-146 -289) translate(0 34) translate(16 200) translate(26 55) translate(104)"/>
                                    <path fill="#D9D9DB" fill-rule="nonzero" d="M5 12.465L7.918 11 13 13.535 10.082 15z" transform="translate(-146 -289) translate(0 34) translate(16 200) translate(26 55) translate(104)"/>
                                    <path fill="#B4B4B5" fill-rule="nonzero" d="M21.03 33.37L24 32 23.97 34.63 21 36z" transform="translate(-146 -289) translate(0 34) translate(16 200) translate(26 55) translate(104)"/>
                                    <path fill="#D9D9DB" fill-rule="nonzero" d="M3 4.535L5.533 3 8 4.465 5.467 6z" transform="translate(-146 -289) translate(0 34) translate(16 200) translate(26 55) translate(104)"/>
                                    <path fill="#BCBBBB" fill-rule="nonzero" d="M12.632 15.834L15.428 14c-.387.254-.63.794-.632 1.561-.003 1.084.476 2.35 1.165 3.276.297.4.645.75 1.019.993.367.24.716.343 1.02.336L15.204 22c-.304.007-.653-.097-1.02-.336-.374-.244-.722-.594-1.019-.993-.689-.926-1.168-2.192-1.165-3.276.002-.767.245-1.307.632-1.561z" transform="translate(-146 -289) translate(0 34) translate(16 200) translate(26 55) translate(104)"/>
                                    <g>
                                        <path fill="#BCBBBB" fill-rule="nonzero" d="M2.98.015L.527 1.802c-.137.1-.295.154-.47.16L2.512.177c.174-.006.332-.061.47-.161z" transform="translate(-146 -289) translate(0 34) translate(16 200) translate(26 55) translate(104) translate(14 20)"/>
                                        <g transform="translate(-146 -289) translate(0 34) translate(16 200) translate(26 55) translate(104) translate(14 20)">
                                            <mask id="m6c5lg2nqb" fill="#fff">
                                                <use xlink:href="#hhrd828swa"/>
                                            </mask>
                                            <g fill="#BCBBBB" fill-rule="nonzero" mask="url(#m6c5lg2nqb)">
                                                <path d="M.058 1.963L2.51.176l.07-.005L.126 1.957c-.023.003-.046.005-.07.006M.127 1.957L2.58.171c.037-.005.073-.011.109-.02L.235 1.938c-.035.009-.071.015-.108.02M.235 1.938L2.69.151c.046-.011.091-.026.135-.046L.37 1.892c-.043.02-.088.035-.135.046"/>
                                                <path d="M.37 1.892L2.824.105c.055-.024.107-.054.156-.09L.527 1.802c-.05.036-.102.066-.157.09"/>
                                            </g>
                                        </g>
                                    </g>
                                    <path fill="#E8E8EA" fill-rule="nonzero" d="M23 32.334L25.395 31 27 33.666 24.605 35z" transform="translate(-146 -289) translate(0 34) translate(16 200) translate(26 55) translate(104)"/>
                                    <path fill="#EAEAEC" fill-rule="nonzero" d="M17 22.717L19.693 21 23 27.283 20.307 29z" transform="translate(-146 -289) translate(0 34) translate(16 200) translate(26 55) translate(104)"/>
                                    <path fill="#D9D9DB" fill-rule="nonzero" d="M8 7.717L10.693 6 14 12.283 11.307 14z" transform="translate(-146 -289) translate(0 34) translate(16 200) translate(26 55) translate(104)"/>
                                    <path fill="#BCBBBB" fill-rule="nonzero" d="M3 3L5.725 0.944 7 0 4.275 2.056z" transform="translate(-146 -289) translate(0 34) translate(16 200) translate(26 55) translate(104)"/>
                                    <path fill="#E8E8EA" fill-rule="nonzero" d="M5 1.334L7.395 0 9 2.666 6.605 4z" transform="translate(-146 -289) translate(0 34) translate(16 200) translate(26 55) translate(104)"/>
                                    <path fill="#F1F1F3" fill-rule="nonzero" d="M12 13.904l2.935-1.882c.326-.046.68-.023 1.065.096L13.065 14c-.386-.12-.739-.141-1.065-.096zM17.429 21.817L20 20c-.089.468-.23.866-.429 1.183L17 23c.199-.317.34-.715.429-1.183z" transform="translate(-146 -289) translate(0 34) translate(16 200) translate(26 55) translate(104)"/>
                                    <path fill="#D9D9DB" fill-rule="nonzero" d="M14 15.87L16.864 14 17 14.13 14.136 16z" transform="translate(-146 -289) translate(0 34) translate(16 200) translate(26 55) translate(104)"/>
                                    <path fill="#D9D9DB" fill-rule="nonzero" d="M14 15.795L16.932 14c.379.35.737.762 1.068 1.205L15.068 17c-.332-.443-.69-.854-1.068-1.205z" transform="translate(-146 -289) translate(0 34) translate(16 200) translate(26 55) translate(104)"/>
                                    <path fill="#EAEAEC" fill-rule="nonzero" d="M17 18.512L19.557 17c.202.491.352.993.443 1.488L17.443 20c-.092-.495-.241-.996-.443-1.488z" transform="translate(-146 -289) translate(0 34) translate(16 200) translate(26 55) translate(104)"/>
                                    <path fill="#D9D9DB" fill-rule="nonzero" d="M20 29.594L23.192 28 28 30.406 24.808 32z" transform="translate(-146 -289) translate(0 34) translate(16 200) translate(26 55) translate(104)"/>
                                    <path fill="#EAEAEC" fill-rule="nonzero" d="M25 31.38L27.939 30 28 31.62 25.061 33zM8 2.757L10.994 1 11 6.243 8.006 8z" transform="translate(-146 -289) translate(0 34) translate(16 200) translate(26 55) translate(104)"/>
                                    <path fill="#F1F1F3" fill-rule="nonzero" d="M7 1.848L9.528 0 11 1.152 8.472 3z" transform="translate(-146 -289) translate(0 34) translate(16 200) translate(26 55) translate(104)"/>
                                    <path fill="#EAEAEC" fill-rule="nonzero" d="M14.017 8.815L17 7 16.983 13.185 14 15z" transform="translate(-146 -289) translate(0 34) translate(16 200) translate(26 55) translate(104)"/>
                                    <path fill="#D9D9DB" fill-rule="nonzero" d="M17 19.465L19.918 18 25 20.535 22.082 22zM25 26.311L27.375 25 29 27.689 26.625 29z" transform="translate(-146 -289) translate(0 34) translate(16 200) translate(26 55) translate(104)"/>
                                    <path fill="#EAEAEC" fill-rule="nonzero" d="M12 2.336L14.408 1 16 3.664 13.592 5z" transform="translate(-146 -289) translate(0 34) translate(16 200) translate(26 55) translate(104)"/>
                                    <path fill="#BCBBBB" fill-rule="nonzero" d="M16 16L18.686 14.645 22 13 19.314 14.355zM25 24.542L27.563 23 30 24.458 27.437 26z" transform="translate(-146 -289) translate(0 34) translate(16 200) translate(26 55) translate(104)"/>
                                    <path fill="#EAEAEC" fill-rule="nonzero" d="M27.006 25.737L30 24 29.994 26.263 27 28z" transform="translate(-146 -289) translate(0 34) translate(16 200) translate(26 55) translate(104)"/>
                                    <path fill="#F1F1F3" fill-rule="nonzero" d="M13 2.81L15.408 1 17 2.19 14.592 4z" transform="translate(-146 -289) translate(0 34) translate(16 200) translate(26 55) translate(104)"/>
                                    <path fill="#D9D9DB" fill-rule="nonzero" d="M14.009 4.378L17 3 16.991 5.622 14 7z" transform="translate(-146 -289) translate(0 34) translate(16 200) translate(26 55) translate(104)"/>
                                    <path fill="#BCBBBB" fill-rule="nonzero" d="M22 22L24.892 20.526 28 19 25.108 20.474z" transform="translate(-146 -289) translate(0 34) translate(16 200) translate(26 55) translate(104)"/>
                                    <path fill="#E9E9EB" fill-rule="nonzero" d="M25 20.358L27.804 19 29 20.642 26.196 22z" transform="translate(-146 -289) translate(0 34) translate(16 200) translate(26 55) translate(104)"/>
                                    <path fill="#BCBBBB" fill-rule="nonzero" d="M14 7L16.363 5.204 18 4 15.637 5.796z" transform="translate(-146 -289) translate(0 34) translate(16 200) translate(26 55) translate(104)"/>
                                    <path fill="#E8E8E9" fill-rule="nonzero" d="M16 6.341L18.863 5 20 6.659 17.137 8z" transform="translate(-146 -289) translate(0 34) translate(16 200) translate(26 55) translate(104)"/>
                                    <path fill="#EAEAEC" fill-rule="nonzero" d="M25.065 17.411L28 16 27.935 17.589 25 19z" transform="translate(-146 -289) translate(0 34) translate(16 200) translate(26 55) translate(104)"/>
                                    <path fill="#D9D9DB" fill-rule="nonzero" d="M23 15.514L25.533 14 28 15.486 25.467 17zM21.029 10.396L24 9 23.971 11.604 21 13z" transform="translate(-146 -289) translate(0 34) translate(16 200) translate(26 55) translate(104)"/>
                                    <path fill="#F1F1F3" fill-rule="nonzero" d="M19 9.953L21.525 8 23 9.047 20.475 11z" transform="translate(-146 -289) translate(0 34) translate(16 200) translate(26 55) translate(104)"/>
                                    <path fill="#BCBBBB" fill-rule="nonzero" d="M21 13L23.388 11.195 25 10 22.612 11.805z" transform="translate(-146 -289) translate(0 34) translate(16 200) translate(26 55) translate(104)"/>
                                    <path fill="#E8E8EA" fill-rule="nonzero" d="M23 11.676L25.73 10 27 12.324 24.27 14z" transform="translate(-146 -289) translate(0 34) translate(16 200) translate(26 55) translate(104)"/>
                                    <path fill="#D3D3D3" fill-rule="nonzero" d="M28 25.782l-.006 2.11-2.755-1.548 1.958 3.321-1.223.584-3.088-5.227-4.939-2.775c-.098.416-.255.771-.477 1.053l3.515 5.924 4.31 2.444.06 1.899-2.71-1.544 1.919 3.234-1.34.743-1.938-3.267-.028 3.106-1.666-.994.034-4.91-3.482-5.863c-.338.05-.714.027-1.117-.075l-.136-.048-.016 5.523 3.108 5.216-1.145.715-1.97-3.3-.01 3.073-1.892-1.063.009-3.044-1.906 1.093-1.13-2.008 3.043-1.724.017-5.559c-.46-.396-.83-.792-1.172-1.224l-3.498 1.94-.002 4.929-1.666-.878-.004-3.124-1.95 1.082-1.331-2.244 1.931-1.07-2.716-1.505.07-1.826 4.317 2.403 3.531-1.965c-.212-.519-.367-1.056-.463-1.581l-4.945-2.779-3.108 1.746-1.209-1.95 1.964-1.118L0 12.163l.006-2.11 2.722 1.53L.803 8.367l1.229-.58 3.056 5.122 4.984 2.8c.105-.412.275-.76.503-1.031l-3.482-5.87L2.692 6.35l-.047-1.884L5.432 6.01 3.494 2.743 4.834 2l1.919 3.234-.011-3.04 1.666 1.008.005 4.83 3.514 5.925c.319-.04.663-.02 1.039.082l.074-5.548-3.023-5.132 1.138-.733 1.893 3.227.009-3.044 1.893 1.063-.01 3.08 1.984-1.085 1.137 2.004-3.128 1.713-.016 5.515.136.113c.369.316.719.687 1.042 1.086l3.531-1.965.033-4.809 1.673.867-.028 3.019 1.931-1.071 1.33 2.243-1.95 1.082 2.787 1.588-.064 1.822-4.394-2.483-3.505 1.944c.226.526.393 1.063.495 1.592l4.984 2.8 3.076-1.676 1.221 1.956-1.937 1.046L28 25.783zm-12.966-3.967c.714-.02 1.196-.584 1.199-1.548.003-.957-.475-2.06-1.186-2.866-.311-.37-.667-.672-1.043-.884-.382-.214-.74-.313-1.044-.289-.708.01-1.203.566-1.206 1.523-.003.956.487 2.074 1.193 2.891.304.353.66.662 1.042.877.376.21.733.302 1.045.296" transform="translate(-146 -289) translate(0 34) translate(16 200) translate(26 55) translate(104)"/>
                                </g>
                            </g>
                        </g>
                    </g>
                </g>
            </g>
        </g>
    </g>
</svg>
