<svg xmlns="http://www.w3.org/2000/svg" width="31" height="30" viewBox="0 0 31 30">
    <g fill="none" fill-rule="evenodd">
        <g fill-rule="nonzero">
            <g>
                <g>
                    <g>
                        <g>
                            <g>
                                <g>
                                    <g>
                                        <path fill="#34D0F4" d="M1.34 8.173l6.264-3.74c.637-.38 1.461-.43 2.383-.095l-6.263 3.74c-.923-.335-1.747-.285-2.384.095z" transform="translate(-145 -250) translate(0 34) translate(16 200) translate(61 16) translate(68)"/>
                                        <path fill="#1CC0F3" d="M5.346 4.155L11.61.415c1.084-.634 2.496-.43 3.908.407.402.238.804.529 1.199.865l-6.264 3.74c-.394-.337-.797-.627-1.199-.865-1.411-.838-2.824-1.042-3.908-.407zM29.355 24.881l-6.263 3.74c.994-.594 1.609-1.854 1.614-3.651.006-2.26-.958-4.826-2.425-6.873l6.264-3.74c1.467 2.048 2.43 4.614 2.425 6.873-.005 1.798-.62 3.057-1.615 3.651z" transform="translate(-145 -250) translate(0 34) translate(16 200) translate(61 16) translate(68)"/>
                                        <path fill="#34D0F4" d="M11.477 4.438C17.807.832 17.835.2 19.567.28c.883.04 1.84.366 2.79.93l-6.263 3.74c-.951-.564-1.907-.89-2.79-.93-.732-.034-1.333.122-1.827.418z" transform="translate(-145 -250) translate(0 34) translate(16 200) translate(61 16) translate(68)"/>
                                        <path fill="#34D0F4" d="M16.094 4.95l6.263-3.74c4.314 2.559 7.216 9.048 6.188 13.147l-6.264 3.74c1.025-4.087-1.865-10.584-6.187-13.147z" transform="translate(-145 -250) translate(0 34) translate(16 200) translate(61 16) translate(68)"/>
                                        <path fill="#00ADEF" d="M16.094 4.95c4.313 2.558 7.216 9.048 6.187 13.147 1.467 2.047 2.431 4.614 2.425 6.873-.006 2.247-.966 3.654-2.43 3.97-.66.144-1.466-.102-2.266-.576L4.272 19.029c-.505-.3-1.016-.682-1.485-1.192C1.144 16.039-.006 13.447 0 11.2c.007-2.637 1.607-3.89 3.724-3.122-.052-1.794.484-3.257 1.622-3.923 1.084-.635 2.497-.43 3.908.407.402.238.805.528 1.199.865.612-.893 1.513-1.47 2.85-1.408.884.04 1.84.367 2.79.93z" transform="translate(-145 -250) translate(0 34) translate(16 200) translate(61 16) translate(68)"/>
                                    </g>
                                    <g>
                                        <path fill="#D9D9DB" d="M.452 6.024L1.703 5.137 2.801 4.374 1.549 5.261zM3.398 7.642L4.649 6.754 4.644 8.92 3.393 9.808z" transform="translate(-145 -250) translate(0 34) translate(16 200) translate(61 16) translate(68) translate(12 13)"/>
                                        <path fill="#EAEAEC" d="M.005 2.649L1.257 1.761 2.804 2.852 1.553 3.739zM4.168 7.106L5.42 6.219 6.51 8.523 5.259 9.411z" transform="translate(-145 -250) translate(0 34) translate(16 200) translate(61 16) translate(68) translate(12 13)"/>
                                        <path fill="#D9D9DB" d="M0.463 1.434L1.714 0.547 2.485 0.015 1.233 0.902z" transform="translate(-145 -250) translate(0 34) translate(16 200) translate(61 16) translate(68) translate(12 13)"/>
                                        <path fill="#EAEAEC" d="M1.233 0.902L2.485 0.015 3.575 2.316 2.324 3.203z" transform="translate(-145 -250) translate(0 34) translate(16 200) translate(61 16) translate(68) translate(12 13)"/>
                                        <path fill="#F1F1F3" d="M5.719 6.674L6.971 5.787 6.967 7.309 5.716 8.196z" transform="translate(-145 -250) translate(0 34) translate(16 200) translate(61 16) translate(68) translate(12 13)"/>
                                        <path fill="#EAEAEC" d="M4.172 5.584L5.423 4.697 6.971 5.787 5.719 6.674zM3.411 1.8L4.663.913 4.658 3.078 3.406 3.966z" transform="translate(-145 -250) translate(0 34) translate(16 200) translate(61 16) translate(68) translate(12 13)"/>
                                        <path fill="#F1F1F3" d="M2.329 1.037L3.58 0.15 4.663 0.913 3.411 1.8z" transform="translate(-145 -250) translate(0 34) translate(16 200) translate(61 16) translate(68) translate(12 13)"/>
                                        <path fill="#D9D9DB" d="M3.406 3.966L4.658 3.078 5.755 2.319 4.504 3.207z" transform="translate(-145 -250) translate(0 34) translate(16 200) translate(61 16) translate(68) translate(12 13)"/>
                                        <path fill="#D3D3D3" d="M3.411 1.8L3.406 3.966 4.504 3.207 5.269 4.821 4.172 5.584 5.719 6.674 5.716 8.196 4.168 7.106 5.259 9.411 4.488 9.943 3.398 7.642 3.393 9.808 2.31 9.045 2.315 6.879 1.217 7.638 0.452 6.024 1.549 5.261 0.002 4.171 0.005 2.649 1.553 3.739 0.463 1.434 1.233 0.902 2.324 3.203 2.329 1.037z" transform="translate(-145 -250) translate(0 34) translate(16 200) translate(61 16) translate(68) translate(12 13)"/>
                                        <path fill="#F1F1F3" d="M4.504 3.207L5.755 2.319 6.521 3.933 5.269 4.821z" transform="translate(-145 -250) translate(0 34) translate(16 200) translate(61 16) translate(68) translate(12 13)"/>
                                    </g>
                                    <g>
                                        <path fill="#D9D9DB" d="M.495 4.836L1.736 4.123 2.825 3.51 1.584 4.223zM3.418 6.135L4.659 5.422 4.654 7.161 3.413 7.874z" transform="translate(-145 -250) translate(0 34) translate(16 200) translate(61 16) translate(68) translate(4 15)"/>
                                        <path fill="#EAEAEC" d="M.052 2.125L1.293 1.413 2.829 2.288 1.587 3.001zM4.182 5.704L5.424 4.992 6.506 6.842 5.264 7.555z" transform="translate(-145 -250) translate(0 34) translate(16 200) translate(61 16) translate(68) translate(4 15)"/>
                                        <path fill="#D9D9DB" d="M0.505 1.15L1.747 0.438 2.512 0.011 1.27 0.723z" transform="translate(-145 -250) translate(0 34) translate(16 200) translate(61 16) translate(68) translate(4 15)"/>
                                        <path fill="#EAEAEC" d="M1.27 0.723L2.512 0.011 3.594 1.858 2.352 2.571z" transform="translate(-145 -250) translate(0 34) translate(16 200) translate(61 16) translate(68) translate(4 15)"/>
                                        <path fill="#F1F1F3" d="M5.721 5.358L6.963 4.645 6.959 5.867 5.718 6.58z" transform="translate(-145 -250) translate(0 34) translate(16 200) translate(61 16) translate(68) translate(4 15)"/>
                                        <path fill="#EAEAEC" d="M4.186 4.482L5.427 3.77 6.963 4.645 5.721 5.358zM3.431 1.444L4.673.731 4.668 2.47 3.426 3.183z" transform="translate(-145 -250) translate(0 34) translate(16 200) translate(61 16) translate(68) translate(4 15)"/>
                                        <path fill="#F1F1F3" d="M2.357 0.831L3.599 0.119 4.673 0.731 3.431 1.444z" transform="translate(-145 -250) translate(0 34) translate(16 200) translate(61 16) translate(68) translate(4 15)"/>
                                        <path fill="#D9D9DB" d="M3.426 3.183L4.668 2.47 5.757 1.861 4.515 2.573z" transform="translate(-145 -250) translate(0 34) translate(16 200) translate(61 16) translate(68) translate(4 15)"/>
                                        <path fill="#D3D3D3" d="M3.431 1.444L3.426 3.183 4.515 2.573 5.275 3.869 4.186 4.482 5.721 5.358 5.718 6.58 4.182 5.704 5.264 7.555 4.5 7.982 3.418 6.135 3.413 7.874 2.338 7.261 2.343 5.522 1.254 6.132 0.495 4.836 1.584 4.223 0.048 3.348 0.052 2.125 1.587 3.001 0.505 1.15 1.27 0.723 2.352 2.571 2.357 0.831z" transform="translate(-145 -250) translate(0 34) translate(16 200) translate(61 16) translate(68) translate(4 15)"/>
                                        <path fill="#F1F1F3" d="M4.515 2.573L5.757 1.861 6.517 3.157 5.275 3.869z" transform="translate(-145 -250) translate(0 34) translate(16 200) translate(61 16) translate(68) translate(4 15)"/>
                                    </g>
                                    <g>
                                        <path fill="#D9D9DB" d="M.36 4.23L1.246 3.614 2.023 3.084 1.137 3.7zM2.446 5.353L3.332 4.737 3.328 6.24 2.442 6.856z" transform="translate(-145 -250) translate(0 34) translate(16 200) translate(61 16) translate(68) translate(12 23)"/>
                                        <path fill="#EAEAEC" d="M.044 1.887L.93 1.27 2.026 2.027 1.139 2.643zM2.991 4.981L3.877 4.365 4.65 5.965 3.763 6.581z" transform="translate(-145 -250) translate(0 34) translate(16 200) translate(61 16) translate(68) translate(12 23)"/>
                                        <path fill="#D9D9DB" d="M0.367 1.043L1.253 0.427 1.799 0.058 0.913 0.674z" transform="translate(-145 -250) translate(0 34) translate(16 200) translate(61 16) translate(68) translate(12 23)"/>
                                        <path fill="#EAEAEC" d="M0.913 0.674L1.799 0.058 2.571 1.655 1.685 2.271z" transform="translate(-145 -250) translate(0 34) translate(16 200) translate(61 16) translate(68) translate(12 23)"/>
                                        <path fill="#F1F1F3" d="M4.09 4.681L4.976 4.065 4.973 5.122 4.087 5.738z" transform="translate(-145 -250) translate(0 34) translate(16 200) translate(61 16) translate(68) translate(12 23)"/>
                                        <path fill="#EAEAEC" d="M2.994 3.924L3.88 3.308 4.976 4.065 4.09 4.681zM2.455 1.297L3.341.681 3.338 2.185 2.452 2.801z" transform="translate(-145 -250) translate(0 34) translate(16 200) translate(61 16) translate(68) translate(12 23)"/>
                                        <path fill="#F1F1F3" d="M1.689 0.768L2.575 0.152 3.341 0.681 2.455 1.297z" transform="translate(-145 -250) translate(0 34) translate(16 200) translate(61 16) translate(68) translate(12 23)"/>
                                        <path fill="#D9D9DB" d="M2.452 2.801L3.338 2.185 4.115 1.658 3.229 2.274z" transform="translate(-145 -250) translate(0 34) translate(16 200) translate(61 16) translate(68) translate(12 23)"/>
                                        <path fill="#D3D3D3" d="M2.455 1.297L2.452 2.801 3.229 2.274 3.771 3.394 2.994 3.924 4.09 4.681 4.087 5.738 2.991 4.981 3.763 6.581 3.218 6.95 2.446 5.353 2.442 6.856 1.675 6.327 1.679 4.823 0.902 5.35 0.36 4.23 1.137 3.7 0.041 2.943 0.044 1.887 1.139 2.643 0.367 1.043 0.913 0.674 1.685 2.271 1.689 0.768z" transform="translate(-145 -250) translate(0 34) translate(16 200) translate(61 16) translate(68) translate(12 23)"/>
                                        <path fill="#F1F1F3" d="M3.455 1.933L4.531 1.845 4.439 3.087 3.363 3.174z" transform="translate(-145 -250) translate(0 34) translate(16 200) translate(61 16) translate(68) translate(12 23) rotate(149.871 3.947 2.51)"/>
                                    </g>
                                </g>
                            </g>
                        </g>
                    </g>
                </g>
            </g>
        </g>
    </g>
</svg>
