<svg aria-hidden="true" style="position: absolute; width: 0; height: 0; overflow: hidden;" version="1.1" xmlns="http://www.w3.org/2000/svg" xmlns:xlink="http://www.w3.org/1999/xlink">
<defs>
<symbol id="icon-lock-open" viewBox="0 0 32 32">
<path d="M24 10.667h-1.333v-2.667c0-3.68-2.987-6.667-6.667-6.667s-6.667 2.987-6.667 6.667h2.667c0-2.213 1.787-4 4-4s4 1.787 4 4v2.667h-12c-1.467 0-2.667 1.2-2.667 2.667v13.333c0 1.467 1.2 2.667 2.667 2.667h16c1.467 0 2.667-1.2 2.667-2.667v-13.333c0-1.467-1.2-2.667-2.667-2.667zM24 26.667h-16v-13.333h16v13.333zM16 22.667c1.467 0 2.667-1.2 2.667-2.667s-1.2-2.667-2.667-2.667-2.667 1.2-2.667 2.667 1.2 2.667 2.667 2.667z"></path>
</symbol>
<symbol id="icon-settings" viewBox="0 0 32 32">
<path d="M25.91 17.307c0.053-0.427 0.093-0.853 0.093-1.307s-0.040-0.88-0.093-1.307l2.813-2.2c0.253-0.2 0.32-0.56 0.16-0.853l-2.667-4.613c-0.16-0.293-0.52-0.4-0.813-0.293l-3.32 1.333c-0.693-0.533-1.44-0.973-2.253-1.307l-0.507-3.533c-0.040-0.32-0.32-0.56-0.653-0.56h-5.333c-0.333 0-0.613 0.24-0.653 0.56l-0.507 3.533c-0.813 0.333-1.56 0.787-2.253 1.307l-3.32-1.333c-0.307-0.12-0.653 0-0.813 0.293l-2.667 4.613c-0.173 0.293-0.093 0.653 0.16 0.853l2.813 2.2c-0.053 0.427-0.093 0.867-0.093 1.307s0.040 0.88 0.093 1.307l-2.813 2.2c-0.253 0.2-0.32 0.56-0.16 0.853l2.667 4.613c0.16 0.293 0.52 0.4 0.813 0.293l3.32-1.333c0.693 0.533 1.44 0.973 2.253 1.307l0.507 3.533c0.040 0.32 0.32 0.56 0.653 0.56h5.333c0.333 0 0.613-0.24 0.653-0.56l0.507-3.533c0.813-0.333 1.56-0.787 2.253-1.307l3.32 1.333c0.307 0.12 0.653 0 0.813-0.293l2.667-4.613c0.16-0.293 0.093-0.653-0.16-0.853l-2.813-2.2zM16.003 20.667c-2.573 0-4.667-2.093-4.667-4.667s2.093-4.667 4.667-4.667 4.667 2.093 4.667 4.667-2.093 4.667-4.667 4.667z"></path>
</symbol>
<symbol id="icon-user-check" viewBox="0 0 32 32">
<path d="M28.413 17.6l0.013 0.013c0.507 0.52 0.507 1.347 0 1.853l-6.853 6.907c-0.52 0.52-1.373 0.52-1.893 0l-2.76-2.787c-0.507-0.52-0.507-1.347 0-1.853l0.013-0.013c0.52-0.52 1.36-0.52 1.867 0l1.827 1.827 5.907-5.947c0.52-0.52 1.36-0.52 1.88 0zM14.667 18.667c0.427 0 0.813 0.027 1.333 0.080l-1.12 1.093c-1.587 1.547-1.6 4.107-0.027 5.68l1.147 1.147h-12v-2.667c0-3.547 7.107-5.333 10.667-5.333zM14.667 5.333c2.947 0 5.333 2.387 5.333 5.333s-2.387 5.333-5.333 5.333-5.333-2.387-5.333-5.333 2.387-5.333 5.333-5.333z"></path>
</symbol>
<symbol id="icon-circle-minus" viewBox="0 0 32 32">
<path d="M9.333 16c0 0.733 0.6 1.333 1.333 1.333h10.667c0.733 0 1.333-0.6 1.333-1.333s-0.6-1.333-1.333-1.333h-10.667c-0.733 0-1.333 0.6-1.333 1.333zM16 2.667c-7.36 0-13.333 5.973-13.333 13.333s5.973 13.333 13.333 13.333 13.333-5.973 13.333-13.333-5.973-13.333-13.333-13.333zM16 26.667c-5.88 0-10.667-4.787-10.667-10.667s4.787-10.667 10.667-10.667 10.667 4.787 10.667 10.667-4.787 10.667-10.667 10.667z"></path>
</symbol>
<symbol id="icon-circle-plus" viewBox="0 0 32 32">
<path d="M16 9.333c-0.733 0-1.333 0.6-1.333 1.333v4h-4c-0.733 0-1.333 0.6-1.333 1.333s0.6 1.333 1.333 1.333h4v4c0 0.733 0.6 1.333 1.333 1.333s1.333-0.6 1.333-1.333v-4h4c0.733 0 1.333-0.6 1.333-1.333s-0.6-1.333-1.333-1.333h-4v-4c0-0.733-0.6-1.333-1.333-1.333zM16 2.667c-7.36 0-13.333 5.973-13.333 13.333s5.973 13.333 13.333 13.333 13.333-5.973 13.333-13.333-5.973-13.333-13.333-13.333zM16 26.667c-5.88 0-10.667-4.787-10.667-10.667s4.787-10.667 10.667-10.667 10.667 4.787 10.667 10.667-4.787 10.667-10.667 10.667z"></path>
</symbol>
<symbol id="icon-account-circle" viewBox="0 0 32 32">
<path d="M16 2.667c-7.36 0-13.333 5.973-13.333 13.333s5.973 13.333 13.333 13.333 13.333-5.973 13.333-13.333-5.973-13.333-13.333-13.333zM16 6.667c2.213 0 4 1.787 4 4s-1.787 4-4 4-4-1.787-4-4 1.787-4 4-4zM16 25.6c-3.333 0-6.28-1.707-8-4.293 0.040-2.653 5.333-4.107 8-4.107 2.653 0 7.96 1.453 8 4.107-1.72 2.587-4.667 4.293-8 4.293z"></path>
</symbol>
<symbol id="icon-alert" viewBox="0 0 32 32">
<path d="M16 7.987l10.040 17.347h-20.080l10.040-17.347zM16 2.667l-14.667 25.333h29.333l-14.667-25.333zM17.333 21.333h-2.667v2.667h2.667v-2.667zM17.333 13.333h-2.667v5.333h2.667v-5.333z"></path>
</symbol>
<symbol id="icon-arrow" viewBox="0 0 32 32">
<path d="M26.388 14.66h-17.56l3.84-3.84c0.52-0.52 0.52-1.36 0-1.88s-1.36-0.52-1.88 0l-6.12 6.12c-0.52 0.52-0.52 1.36 0 1.88l6.12 6.12c0.52 0.52 1.36 0.52 1.88 0s0.52-1.36 0-1.88l-3.84-3.853h17.56c0.733 0 1.333-0.6 1.333-1.333s-0.6-1.333-1.333-1.333z"></path>
</symbol>
<symbol id="icon-box-minus" viewBox="0 0 32 32">
<path d="M25.333 4h-18.667c-1.467 0-2.667 1.2-2.667 2.667v18.667c0 1.467 1.2 2.667 2.667 2.667h18.667c1.467 0 2.667-1.2 2.667-2.667v-18.667c0-1.467-1.2-2.667-2.667-2.667zM25.333 25.333h-18.667v-18.667h18.667v18.667zM9.333 14.667h13.333v2.667h-13.333v-2.667z"></path>
</symbol>
<symbol id="icon-box-plus" viewBox="0 0 32 32">
<path d="M25.333 4h-18.667c-1.48 0-2.667 1.2-2.667 2.667v18.667c0 1.467 1.187 2.667 2.667 2.667h18.667c1.467 0 2.667-1.2 2.667-2.667v-18.667c0-1.467-1.2-2.667-2.667-2.667zM25.333 25.333h-18.667v-18.667h18.667v18.667zM14.667 22.667h2.667v-5.333h5.333v-2.667h-5.333v-5.333h-2.667v5.333h-5.333v2.667h5.333v5.333z"></path>
</symbol>
<symbol id="icon-check" viewBox="0 0 24 24">
<path d="M9 16.2l-3.5-3.5c-.39-.39-1.01-.39-1.4 0-.39.39-.39 1.01 0 1.4l4.19 4.19c.39.39 1.02.39 1.41 0L20.3 7.7c.39-.39.39-1.01 0-1.4-.39-.39-1.01-.39-1.4 0L9 16.2z"/>
</symbol>
<symbol id="icon-delete" viewBox="0 0 32 32">
<path d="M24.4 7.613c-0.52-0.52-1.36-0.52-1.88 0l-6.52 6.507-6.52-6.52c-0.52-0.52-1.36-0.52-1.88 0s-0.52 1.36 0 1.88l6.52 6.52-6.52 6.52c-0.52 0.52-0.52 1.36 0 1.88s1.36 0.52 1.88 0l6.52-6.52 6.52 6.52c0.52 0.52 1.36 0.52 1.88 0s0.52-1.36 0-1.88l-6.52-6.52 6.52-6.52c0.507-0.507 0.507-1.36 0-1.867z"></path>
</symbol>
<symbol id="icon-delete-circle" viewBox="0 0 32 32">
<path d="M18.52 11.6l-2.52 2.52-2.52-2.52c-0.52-0.52-1.36-0.52-1.88 0s-0.52 1.36 0 1.88l2.52 2.52-2.52 2.52c-0.52 0.52-0.52 1.36 0 1.88s1.36 0.52 1.88 0l2.52-2.52 2.52 2.52c0.52 0.52 1.36 0.52 1.88 0s0.52-1.36 0-1.88l-2.52-2.52 2.52-2.52c0.52-0.52 0.52-1.36 0-1.88-0.52-0.507-1.373-0.507-1.88 0zM16 2.667c-7.373 0-13.333 5.96-13.333 13.333s5.96 13.333 13.333 13.333 13.333-5.96 13.333-13.333-5.96-13.333-13.333-13.333zM16 26.667c-5.88 0-10.667-4.787-10.667-10.667s4.787-10.667 10.667-10.667 10.667 4.787 10.667 10.667-4.787 10.667-10.667 10.667z"></path>
</symbol>
<symbol id="icon-delete-bin">
<path d="M6 19c0 1.1.9 2 2 2h8c1.1 0 2-.9 2-2V9c0-1.1-.9-2-2-2H8c-1.1 0-2 .9-2 2v10zm3.17-7.83c.39-.39 1.02-.39 1.41 0L12 12.59l1.42-1.42c.39-.39 1.02-.39 1.41 0 .39.39.39 1.02 0 1.41L13.41 14l1.42 1.42c.39.39.39 1.02 0 1.41-.39.39-1.02.39-1.41 0L12 15.41l-1.42 1.42c-.39.39-1.02.39-1.41 0-.39-.39-.39-1.02 0-1.41L10.59 14l-1.42-1.42c-.39-.38-.39-1.02 0-1.41zM15.5 4l-.71-.71c-.18-.18-.44-.29-.7-.29H9.91c-.26 0-.52.11-.7.29L8.5 4H6c-.55 0-1 .45-1 1s.45 1 1 1h12c.55 0 1-.45 1-1s-.45-1-1-1h-2.5z"/>
</symbol>
<symbol id="icon-download" viewBox="0 0 32 32">
<path d="M21.333 12h-3.4v-4h-3.867v4h-3.4l5.333 5.333 5.333-5.333zM25.333 4h-18.68c-1.48 0-2.653 1.2-2.653 2.667v18.667c0 1.467 1.173 2.667 2.653 2.667h18.68c1.467 0 2.667-1.2 2.667-2.667v-18.667c0-1.467-1.2-2.667-2.667-2.667zM25.333 25.333h-18.667v-4h4.747c0.92 1.587 2.627 2.667 4.6 2.667s3.667-1.080 4.6-2.667h4.72v4zM25.333 18.667h-6.653c0 1.467-1.2 2.667-2.667 2.667s-2.667-1.2-2.667-2.667h-6.68l-0.013-12h18.68v12z"></path>
</symbol>
<symbol id="icon-home" viewBox="0 0 32 32">
<path d="M13.333 25.333v-6.667h5.333v6.667c0 0.733 0.6 1.333 1.333 1.333h4c0.733 0 1.333-0.6 1.333-1.333v-9.333h2.267c0.613 0 0.907-0.76 0.44-1.16l-11.147-10.040c-0.507-0.453-1.28-0.453-1.787 0l-11.147 10.040c-0.453 0.4-0.173 1.16 0.44 1.16h2.267v9.333c0 0.733 0.6 1.333 1.333 1.333h4c0.733 0 1.333-0.6 1.333-1.333z"></path>
</symbol>
<symbol id="icon-inbox" viewBox="0 0 32 32">
<path d="M25.333 4h-18.667c-1.467 0-2.667 1.2-2.667 2.667v9.333c0 1.467 1.2 2.667 2.667 2.667h18.667c1.467 0 2.667-1.2 2.667-2.667v-9.333c0-1.467-1.2-2.667-2.667-2.667zM25.333 12h-4.187c-0.627 0-1.12 0.44-1.293 1.040-0.48 1.68-2.053 2.96-3.853 2.96s-3.373-1.28-3.853-2.96c-0.173-0.6-0.667-1.040-1.293-1.040h-4.187v-4c0-0.733 0.6-1.333 1.333-1.333h16c0.733 0 1.333 0.6 1.333 1.333v4zM21.16 21.333h5.507c0.733 0 1.333 0.6 1.333 1.333v2.667c0 1.467-1.2 2.667-2.667 2.667h-18.667c-1.467 0-2.667-1.2-2.667-2.667v-2.667c0-0.733 0.6-1.333 1.333-1.333h5.507c0.627 0 1.133 0.453 1.307 1.067 0.467 1.693 2.013 2.933 3.853 2.933s3.387-1.24 3.853-2.933c0.173-0.613 0.68-1.067 1.307-1.067z"></path>
</symbol>
<symbol id="icon-info" viewBox="0 0 32 32">
<path d="M14.667 9.333h2.667v2.667h-2.667v-2.667zM14.667 14.667h2.667v8h-2.667v-8zM16 2.667c-7.36 0-13.333 5.973-13.333 13.333s5.973 13.333 13.333 13.333 13.333-5.973 13.333-13.333-5.973-13.333-13.333-13.333zM16 26.667c-5.88 0-10.667-4.787-10.667-10.667s4.787-10.667 10.667-10.667 10.667 4.787 10.667 10.667-4.787 10.667-10.667 10.667z"></path>
</symbol>
<symbol id="icon-info-circle" viewBox="0 0 32 32">
<path d="M16 2.667c-7.36 0-13.333 5.973-13.333 13.333s5.973 13.333 13.333 13.333 13.333-5.973 13.333-13.333-5.973-13.333-13.333-13.333zM16 22.667c-0.733 0-1.333-0.6-1.333-1.333v-5.333c0-0.733 0.6-1.333 1.333-1.333s1.333 0.6 1.333 1.333v5.333c0 0.733-0.6 1.333-1.333 1.333zM17.333 12h-2.667v-2.667h2.667v2.667z"></path>
</symbol>
<symbol id="icon-link" viewBox="0 0 32 32">
<path d="M29.065 2.34c-2.984-3.121-7.839-3.121-10.824 0l-4.383 4.582c-0.185 0.195-0.237 0.488-0.132 0.74 0.106 0.252 0.331 0.413 0.612 0.397l0.195-0.014c0.331-0.032 0.669-0.007 1.005 0.026 0.561 0.053 1.149 0.178 1.798 0.38 0.225 0.072 0.469 0.006 0.633-0.167l2.979-3.115c1.446-1.511 3.968-1.511 5.412 0 1.493 1.561 1.493 4.099 0 5.66l-4.266 4.461c-0.337-1.377-0.998-2.61-1.958-3.613-1.256-1.315-2.887-2.102-4.714-2.278-1.586-0.145-3.149 0.207-4.518 1.034-0.654 0.395-1.159 0.79-1.593 1.244l-6.376 6.669c-2.984 3.119-2.984 8.195 0 11.315 1.489 1.561 3.449 2.34 5.411 2.34 1.96 0 3.919-0.779 5.412-2.34l4.38-4.579c0.186-0.195 0.239-0.487 0.134-0.739-0.104-0.25-0.356-0.422-0.608-0.399l-0.203 0.014c-0.326 0.035-0.662 0.004-0.999-0.028-0.559-0.053-1.148-0.178-1.799-0.38-0.227-0.070-0.466-0.006-0.632 0.168l-2.979 3.114c-1.446 1.511-3.968 1.511-5.412 0-1.493-1.56-1.493-4.099 0-5.658l4.266-4.461c0.337 1.376 0.998 2.609 1.958 3.613 1.258 1.315 2.887 2.101 4.715 2.276 0.237 0.022 0.474 0.033 0.711 0.033 1.338 0 2.642-0.363 3.805-1.066 0.654-0.397 1.159-0.792 1.593-1.244l6.378-6.669c2.984-3.121 2.984-8.196 0-11.317zM18.371 18.482c-1.376 0.437-2.82 0.040-3.802-0.986-0.996-1.041-1.345-2.571-0.942-3.976 1.377-0.434 2.822-0.040 3.802 0.985 0.996 1.041 1.345 2.574 0.942 3.978z"></path>
</symbol>
<symbol id="icon-menu-book" viewBox="0 0 32 32">
<path d="M23.333 6c1.933 0 3.987 0.293 5.693 1.053 0.973 0.44 1.627 1.387 1.627 2.467v15.040c0 1.747-1.627 3.027-3.307 2.587-1.307-0.333-2.693-0.48-4.027-0.48-2.080 0-4.293 0.333-6.080 1.227-0.787 0.4-1.693 0.4-2.493 0-1.787-0.88-4-1.227-6.080-1.227-1.333 0-2.72 0.147-4.027 0.48-1.68 0.427-3.307-0.853-3.307-2.587v-15.040c0-1.080 0.653-2.027 1.627-2.467 1.72-0.76 3.773-1.053 5.707-1.053 2.6 0 5.4 0.533 7.333 2 1.933-1.467 4.733-2 7.333-2zM23.333 8.667c-2.267 0-5.533 0.867-7.333 2v15.347c1.8-1.133 5.067-2 7.333-2 1.027 0 2.067 0.080 3.067 0.267 0.827 0.147 1.6-0.467 1.6-1.307v-12.627c0-0.627-0.453-1.173-1.067-1.307-1.16-0.253-2.373-0.373-3.6-0.373zM25.48 19.227c0.547 0.067 0.947 0.56 0.88 1.107s-0.56 0.933-1.107 0.88c-2.16-0.253-4.52-0.053-6.307 0.52-0.107 0.027-0.213 0.040-0.307 0.040-0.427 0-0.813-0.267-0.947-0.693-0.173-0.52 0.12-1.093 0.64-1.253 2.040-0.667 4.707-0.88 7.147-0.6zM25.48 15.68c0.547 0.067 0.947 0.56 0.88 1.107s-0.56 0.947-1.107 0.88c-2.16-0.253-4.52-0.053-6.307 0.52-0.107 0.027-0.213 0.040-0.307 0.040-0.427 0-0.813-0.267-0.947-0.693-0.173-0.52 0.12-1.093 0.64-1.253 2.040-0.667 4.707-0.88 7.147-0.6zM25.48 12.133c0.547 0.067 0.947 0.56 0.88 1.107s-0.56 0.947-1.107 0.88c-2.16-0.253-4.52-0.053-6.307 0.52-0.107 0.013-0.213 0.040-0.307 0.040-0.427 0-0.813-0.267-0.947-0.693-0.173-0.52 0.12-1.093 0.64-1.253 2.053-0.667 4.707-0.88 7.147-0.6z"></path>
</symbol>
<symbol id="icon-note">
<path d="M19 5v9h-5v5H5V5h14m0-2H5c-1.1 0-2 .9-2 2v14c0 1.1.9 2 2 2h10l6-6V5c0-1.1-.9-2-2-2zm-7 11H7v-2h5v2zm5-4H7V8h10v2z"/>
</symbol>
<symbol id="icon-refresh" viewBox="0 0 32 32">
<path d="M23.522 8.469c-2.173-2.173-5.253-3.427-8.64-3.080-4.893 0.493-8.92 4.467-9.467 9.36-0.733 6.467 4.267 11.92 10.573 11.92 4.253 0 7.907-2.493 9.613-6.080 0.427-0.893-0.213-1.92-1.2-1.92-0.493 0-0.96 0.267-1.173 0.707-1.507 3.24-5.12 5.293-9.067 4.413-2.96-0.653-5.347-3.067-5.973-6.027-1.12-5.173 2.813-9.76 7.8-9.76 2.213 0 4.187 0.92 5.627 2.373l-2.013 2.013c-0.84 0.84-0.253 2.28 0.933 2.28h4.787c0.733 0 1.333-0.6 1.333-1.333v-4.787c0-1.187-1.44-1.787-2.28-0.947l-0.853 0.867z"></path>
</symbol>
<symbol id="icon-search" viewBox="0 0 32 32">
<path d="M21.302 19.295h-1.053l-0.373-0.36c1.6-1.867 2.427-4.413 1.973-7.12-0.627-3.707-3.72-6.667-7.453-7.12-5.64-0.693-10.387 4.053-9.693 9.693 0.453 3.733 3.413 6.827 7.12 7.453 2.707 0.453 5.253-0.373 7.12-1.973l0.36 0.373v1.053l5.667 5.667c0.547 0.547 1.44 0.547 1.987 0s0.547-1.44 0-1.987l-5.653-5.68zM13.302 19.295c-3.32 0-6-2.68-6-6s2.68-6 6-6 6 2.68 6 6-2.68 6-6 6z"></path>
</symbol>
<symbol id="icon-success-circle" viewBox="0 0 32 32">
<path d="M15.984 0c8.848 0 16.016 7.168 16.016 16s-7.168 16-16.016 16c-8.832 0-15.984-7.168-15.984-16s7.152-16 15.984-16zM16 3.2c-7.072 0-12.8 5.728-12.8 12.8s5.728 12.8 12.8 12.8 12.8-5.728 12.8-12.8-5.728-12.8-12.8-12.8zM22.781 10.573l0.555 0.536c0.459 0.443 0.459 1.163 0 1.606l-9.134 8.822c-0.147 0.144-0.347 0.222-0.555 0.222s-0.406-0.080-0.554-0.222l-4.429-4.277c-0.459-0.445-0.459-1.165 0-1.606l0.555-0.536c0.459-0.445 1.203-0.445 1.664 0l2.763 2.67 7.472-7.216c0.459-0.443 1.203-0.443 1.664 0z"></path>
</symbol>
<symbol id="icon-success-circle-fill" viewBox="0 0 32 32">
<path fill="#0f61fd" style="fill: var(--color1, #0f61fd)" d="M16.001 0.039c-8.834 0-16.001 7.15-16.001 15.961s7.168 15.961 16.001 15.961c8.831 0 15.999-7.15 15.999-15.961s-7.165-15.961-15.999-15.961zM16.001 28.769c-7.072 0-12.801-5.714-12.801-12.769s5.728-12.769 12.801-12.769c7.071 0 12.801 5.714 12.801 12.769s-5.73 12.769-12.801 12.769z"></path>
<path fill="#0f61fd" style="fill: var(--color1, #0f61fd)" d="M29.335 16c0 7.346-5.97 13.3-13.334 13.3s-13.334-5.955-13.334-13.3c0-7.345 5.97-13.3 13.334-13.3s13.334 5.955 13.334 13.3z"></path>
<path fill="#fff" style="fill: var(--color2, #fff)" d="M14.125 22.419c-0.152 0.148-0.359 0.231-0.576 0.231s-0.425-0.083-0.578-0.231l-4.613-4.445c-0.479-0.461-0.479-1.208 0-1.669l0.578-0.557c0.479-0.461 1.255-0.461 1.733 0l2.879 2.776 7.781-7.498c0.479-0.461 1.256-0.461 1.733 0l0.578 0.559c0.479 0.46 0.479 1.208 0 1.668l-9.516 9.168z"></path>
</symbol>
<symbol id="icon-user" viewBox="0 0 32 32">
<path d="M27.313 20.687c-1.743-1.743-3.816-3.033-6.080-3.813 2.424-1.671 4.016-4.464 4.016-7.623 0.001-5.103-4.149-9.251-9.249-9.251s-9.251 4.149-9.251 9.251c0 3.159 1.593 5.952 4.017 7.621-2.264 0.781-4.337 2.072-6.080 3.813-3.023 3.024-4.687 7.041-4.687 11.315h2.5c0-7.444 6.056-13.5 13.5-13.5s13.5 6.056 13.5 13.5h2.5c0-4.273-1.664-8.292-4.687-11.313zM16 16c-3.721 0-6.751-3.028-6.751-6.751 0-3.721 3.029-6.749 6.751-6.749s6.751 3.028 6.751 6.751c0 3.721-3.031 6.749-6.751 6.749z"></path>
</symbol>
<symbol id="icon-menu-open">
<g transform="translate(-16 -12) translate(16 12) translate(3 6)">
<path d="M0 12h6v-2H0v2zm0-5h10V5H0v2zm15.45-2v3H18l-4 4-4-4h2.55V5h2.9zM18 0v2H0V0h18z"/></g>
</symbol>
<symbol id="icon-menu-close">
<g transform="translate(-16 -12) translate(16 12) translate(3 6)">
<path d="M0 12h6v-2H0v2zm0-5h10V5H0v2zm14-2l4 4h-2.55v3h-2.9V9H10l4-4zm4-5v2H0V0h18z"/></g>
</symbol>
<symbol id="icon-system-switch">
<path d="M21 3c1.1 0 2 .89 2 2v12c0 1.1-.9 2-2 2h-5v1c0 .55-.45 1-1 1H9c-.55 0-1-.45-1-1v-1H3c-1.1 0-2-.9-2-2V5c0-1.1.9-2 2-2zm-1 2H4c-.55 0-1 .45-1 1v10c0 .55.45 1 1 1h16c.55 0 1-.45 1-1V6c0-.55-.45-1-1-1zM7.288 7.237c.257-.282.72-.315 1.036-.086.316.23.353.642.096.923L5.693 11l2.727 2.926c.257.281.22.693-.096.923-.316.229-.779.196-1.036-.086L4.17 11.42c-.228-.242-.228-.596 0-.838zm8.388-.086c.308-.229.779-.19 1.036.086l3.117 3.344c.228.242.228.596 0 .838l-3.117 3.344c-.257.282-.72.315-1.036.086-.31-.23-.353-.642-.096-.923L18.307 11 15.58 8.074c-.257-.281-.22-.693.096-.923zm-5.881 3.194v1.31h-1.47v-1.31h1.47zm5.88 0v1.31h-1.47v-1.31h1.47zm-2.94 0v1.31h-1.47v-1.31h1.47z"/>
</symbol>
<symbol id="icon-satellite">
<path d="M13.948 4.701c2.088-1.124 3.076-.81 3.537-.35 1.611 1.61 2.499 3.752 2.499 6.029 0 2.041-.714 3.972-2.022 5.51L21 20.823v.803h-7.54v-.803l1.701-2.76c-1.142.55-2.403.843-3.709.843-2.279 0-4.421-.887-6.032-2.498-.461-.46-.775-1.447.35-3.534.698-1.296 1.81-2.762 3.162-4.172l-.198.209-.167-.248c-.29-.027-.525-.354-.562-.773L8 7.774c0-.493.271-.893.605-.893.322 0 .584.37.604.836L10 8.883c-.109.154-.217.31-.325.469l-.038.056 2.652 2.65c.143-.136.285-.275.426-.416.141-.141.28-.283.416-.426L9.773 7.861c1.412-1.35 2.878-2.462 4.175-3.16zm3.77 1.851c-.122.386-.31.827-.583 1.334-.769 1.427-2.04 3.06-3.578 4.597-1.539 1.538-3.173 2.807-4.6 3.576-.507.273-.95.46-1.335.582 1.142.7 2.457 1.075 3.83 1.075 1.961 0 3.805-.763 5.191-2.149 1.387-1.385 2.15-3.228 2.15-5.187 0-1.372-.375-2.687-1.075-3.828zM9 4.915v1.106c-1.034 0-1.875.827-1.875 1.843H6c0-1.626 1.346-2.949 3-2.949zm0-2.949V3.23c-2.6 0-4.714 2.079-4.714 4.634H3c0-3.252 2.692-5.898 6-5.898z"/>
</symbol>
<symbol id="icon-radar">
<path d="M19.088 4.828C15.64 1.44 10.128 1.024 6.196 3.774c-1.193-.657-2.629.122-2.629 1.462 0 .316.092.617.253.881C1.043 9.98 1.473 15.38 4.912 18.76c1.933 1.899 4.53 2.867 7.097 2.867 2.003 0 4.047-.597 5.77-1.794.268.158.573.248.894.248.972 0 1.76-.773 1.76-1.729 0-.316-.092-.617-.253-.882 2.777-3.862 2.347-9.26-1.092-12.64zm-7.674 15.625c-2.062-.136-4.117-.98-5.673-2.51-1.556-1.528-2.414-3.547-2.553-5.573h2.364c.08.874.356 1.77.81 2.563-.466.669-.405 1.593.209 2.196.616.605 1.555.659 2.229.209.808.448 1.723.71 2.614.787v2.328zm0-3.484c-.65-.07-1.324-.263-1.92-.574.197-.659-.003-1.286-.435-1.71-.452-.445-1.128-.562-1.726-.402-.325-.593-.527-1.265-.6-1.913h3.616c.177.488.568.872 1.065 1.046v3.553zm0-6.798c-.497.174-.888.558-1.065 1.046H6.725c.266-2.332 2.11-4.309 4.689-4.59v3.544zm0-4.697c-3.239.29-5.59 2.775-5.867 5.743H3.194c.1-1.516.607-3.05 1.53-4.362.191.068.393.11.603.11.97 0 1.759-.773 1.759-1.73 0-.205-.042-.403-.112-.591 1.336-.907 2.897-1.405 4.44-1.505v2.335zm1.172 1.153c.964.105 1.932.47 2.729 1.095l-2.561 2.516c-.055-.025-.11-.047-.168-.067V6.627zm0-1.153v-2.34c1.877.124 3.75.84 5.239 2.12l-1.681 1.653c-1.03-.843-2.293-1.32-3.558-1.433zm0 7.942c.497-.174.888-.562 1.065-1.05h3.607c-.288 2.54-2.306 4.35-4.672 4.611v-3.561zm6.678 3.332c-1.196-.4-2.35.426-2.35 1.603 0 .206.042.404.112.592-1.336.907-2.897 1.405-4.44 1.505V18.11c3.163-.287 5.559-2.66 5.844-5.744h2.376c-.101 1.522-.612 3.065-1.542 4.382z"/>
</symbol>
<symbol id="icon-time">
<path d="M11.99 1.966C6.47 1.966 2 6.37 2 11.796s4.47 9.83 9.99 9.83c5.53 0 10.01-4.404 10.01-9.83s-4.48-9.83-10.01-9.83zM12 19.66c-4.42 0-8-3.519-8-7.864s3.58-7.864 8-7.864 8 3.52 8 7.864c0 4.345-3.58 7.864-8 7.864zm-.22-12.779h-.06c-.4 0-.72.315-.72.708v4.64c0 .344.18.668.49.845l4.15 2.448c.34.196.78.098.98-.236.21-.334.1-.777-.25-.973l-3.87-2.261V7.589c0-.393-.32-.708-.72-.708z"/>
</symbol>
<symbol id="icon-snowflake">
<path d="M21 10.813h-3.17l2.54-2.497c.39-.383.39-1.002 0-1.386-.39-.383-1.03-.383-1.42 0L15 10.813h-2V8.847l3.95-3.883c.39-.383.39-1.012 0-1.396-.39-.383-1.02-.383-1.41 0L13 6.065V2.95c0-.54-.45-.983-1-.983s-1 .442-1 .983v3.116L8.46 3.568c-.39-.383-1.02-.383-1.41 0-.39.384-.39 1.013 0 1.396L11 8.847v1.966H9L5.05 6.93c-.39-.383-1.03-.383-1.42 0-.39.384-.39 1.003 0 1.386l2.54 2.497H3c-.55 0-1 .442-1 .983 0 .54.45.983 1 .983h3.17l-2.54 2.497c-.39.383-.39 1.003 0 1.386s1.03.383 1.42 0L9 12.779h2v1.966l-3.95 3.883c-.39.383-.39 1.013 0 1.396s1.02.383 1.41 0L11 17.527v3.116c0 .54.45.983 1 .983s1-.442 1-.983v-3.116l2.54 2.497c.39.383 1.02.383 1.41 0 .39-.383.39-1.013 0-1.396L13 14.745V12.78h2l3.95 3.883c.39.383 1.03.383 1.42 0 .39-.383.39-1.003 0-1.386l-2.54-2.497H21c.55 0 1-.442 1-.983 0-.54-.45-.983-1-.983z"/>
</symbol>
<symbol id="icon-statistics">
<path d="M21.023 7.864c.357 0 .645.273.645.611v12.912h.687c.357 0 .645.274.645.611 0 .338-.288.611-.645.611H1.645C1.288 22.61 1 22.336 1 22c0-.338.288-.612.645-.612h.687v-6.802c0-.338.288-.611.645-.611h2.578c.356 0 .644.273.644.61v6.803h1.29V17.03c0-.338.288-.611.644-.611h2.578c.356 0 .644.273.644.61v4.36h1.29V12.14c0-.338.288-.611.644-.611h2.578c.356 0 .645.273.645.611v9.246H17.8V8.475c0-.338.288-.61.644-.61zM19.1.983c1.048 0 1.9.794 1.9 1.77 0 .975-.852 1.769-1.9 1.769-.389 0-.75-.11-1.052-.298l-2.21 1.543c.057.167.095.34.095.524 0 .976-.852 1.77-1.9 1.77-.292 0-.566-.067-.814-.178l-2.543 2.369c.119.23.19.485.19.758 0 .975-.852 1.77-1.9 1.77-1.047 0-1.9-.795-1.9-1.77 0-.074.015-.144.024-.215l-1.875-.873c-.342.307-.804.498-1.315.498-1.048 0-1.9-.794-1.9-1.77 0-.975.852-1.769 1.9-1.769s1.9.794 1.9 1.77c0 .073-.014.143-.023.214l1.875.873c.341-.307.804-.498 1.315-.498.292 0 .566.067.814.178l2.543-2.369c-.119-.23-.19-.485-.19-.758 0-.975.852-1.77 1.9-1.77.388 0 .75.111 1.051.299l2.21-1.544c-.056-.166-.095-.34-.095-.524 0-.975.852-1.769 1.9-1.769z"/>
</symbol>
<symbol id="icon-umbrella">
<path d="M19.071 5.286c-1.733-1.697-3.99-2.694-6.412-2.847v-.794C12.659 1.29 12.364 1 12 1c-.364 0-.659.289-.659.645v.794c-2.423.153-4.68 1.15-6.412 2.847C3.04 7.136 2 9.595 2 12.211v.003c0 .357.295.645.659.645.364 0 .658-.288.658-.645 0-.642.766-1.184 1.671-1.184.906 0 1.671.542 1.671 1.184 0 .357.295.645.659.645.364 0 .659-.288.659-.645 0-.642.765-1.184 1.67-1.184.9 0 1.661.535 1.67 1.172V20.666c0 .575-.478 1.044-1.066 1.044-.588 0-1.066-.469-1.066-1.044 0-.357-.295-.645-.659-.645-.364 0-.659.288-.659.645 0 1.287 1.07 2.334 2.384 2.334 1.314 0 2.384-1.047 2.384-2.334V12.24v-.026c0-.642.766-1.184 1.672-1.184.905 0 1.67.542 1.67 1.184 0 .356.295.645.66.645.363 0 .658-.289.658-.645 0-.642.765-1.184 1.67-1.184.907 0 1.672.542 1.672 1.184 0 .356.295.645.658.645.027 0 .052-.002.078-.005.349-.016.627-.297.627-.643 0-2.616-1.04-5.075-2.929-6.925z"/>
</symbol>
<symbol id="icon-thermometer">
<path d="M21.255 3.425h-2.782C18.233 2.027 16.958.96 15.435.983c-1.664.024-2.986 1.36-2.986 2.963V14.82c0 .18-.071.352-.2.481-.815.814-1.265 1.899-1.249 3.053.035 2.372 2.082 4.287 4.545 4.254 3.925-.053 5.862-4.615 3.171-7.305-.13-.13-.202-.303-.202-.483v-1.28h.93c.39 0 .726-.29.744-.665.02-.4-.311-.731-.723-.731h-.95V9.18h1.835c.39 0 .726-.289.744-.664.02-.4-.312-.731-.724-.731h-1.856V4.82h2.762c.411 0 .743-.33.723-.731-.018-.375-.353-.664-.744-.664zm-5.4 16.23c-1.817-.105-2.54-2.03-1.064-2.955.216-.135.343-.344.343-.567v-8.52c0-.383.359-.713.824-.731.497-.02.906.307.906.711v8.53c0 .224.122.44.339.574 1.587.988.632 3.074-1.348 2.959zM3 4.916c-1.103 0-2-.882-2-1.966S1.897.983 3 .983s2 .882 2 1.966-.897 1.966-2 1.966zm.5-1.966c-.276 0-.5.22-.5.492 0 .27.224.491.5.491s.5-.22.5-.491-.224-.492-.5-.492zm4.24 7.864C6.229 10.813 5 9.5 5 7.885V5.877c0-1.615 1.229-2.928 2.74-2.928.82 0 1.59.388 2.113 1.065.225.291.187.722-.086.963-.272.24-.676.199-.9-.092-.869-1.124-2.587-.468-2.587.992v2.008C6.28 9.346 8 10 8.866 8.877c.225-.291.629-.332.901-.092.273.24.312.671.087.963-.523.677-1.294 1.065-2.114 1.065z"/>
</symbol>
<symbol id="icon-pin-plus">
<path d="M19 1c.55 0 1 .45 1 1v2h2c.55 0 1 .45 1 1s-.45 1-1 1h-2v2c0 .55-.45 1-1 1s-1-.45-1-1V6h-2c-.55 0-1-.45-1-1s.45-1 1-1h2V2c0-.55.45-1 1-1zm-7 12c1.1 0 2-.9 2-2s-.9-2-2-2-2 .9-2 2 .9 2 2 2zm2.72-9.53c-.44.36-.72.91-.72 1.53 0 1.1.9 2 2 2h1v1c0 1.1.9 2 2 2 .32 0 .62-.08.89-.21.07.45.11.92.11 1.41 0 3.18-2.45 6.92-7.34 11.23-.38.33-.95.33-1.33 0C6.45 18.12 4 14.38 4 11.2 4 6.22 7.8 3 12 3c.94 0 1.86.16 2.72.47z"/>
</symbol>
</defs>
</svg>
