<svg xmlns="http://www.w3.org/2000/svg" width="32" height="34" viewBox="0 0 32 34">
    <g fill="none" fill-rule="evenodd">
        <g fill-rule="nonzero">
            <g>
                <g>
                    <g>
                        <g>
                            <g>
                                <g>
                                    <g>
                                        <g fill="#453D81">
                                            <path d="M2.825 2.033H.942C.422 2.033 0 1.578 0 1.016 0 .456.422 0 .942 0h1.883c.52 0 .941.455.941 1.016 0 .562-.421 1.017-.941 1.017zM1.883 6.099H.942C.422 6.099 0 5.644 0 5.082c0-.561.422-1.016.942-1.016h.941c.52 0 .942.455.942 1.016 0 .562-.422 1.017-.942 1.017zM2.825 10.165H.942C.422 10.165 0 9.71 0 9.148c0-.561.422-1.016.942-1.016h1.883c.52 0 .941.455.941 1.016 0 .562-.421 1.017-.941 1.017zM1.883 14.23H.942c-.52 0-.942-.454-.942-1.016 0-.561.422-1.016.942-1.016h.941c.52 0 .942.455.942 1.016 0 .562-.422 1.017-.942 1.017zM2.825 18.297H.942c-.52 0-.942-.456-.942-1.017 0-.561.422-1.016.942-1.016h1.883c.52 0 .941.455.941 1.016 0 .561-.421 1.017-.941 1.017z" transform="translate(-144 -335) translate(0 34) translate(16 200) translate(68 101) translate(60) translate(14) translate(14 4)"/>
                                        </g>
                                        <g>
                                            <path fill="#E2DFF4" d="M0 27.027C0 30.878 3.038 34 6.785 34c3.747 0 6.785-3.122 6.785-6.973 0-2.22-1.01-4.199-2.585-5.476V4.316c0-2.383-1.88-4.316-4.2-4.316-2.32 0-4.2 1.932-4.2 4.316v17.235C1.01 22.828 0 24.806 0 27.027z" transform="translate(-144 -335) translate(0 34) translate(16 200) translate(68 101) translate(60) translate(14)"/>
                                            <path fill="#BEBCDD" d="M13.57 27.027c0-2.22-1.01-4.199-2.585-5.476V4.316c0-2.383-1.88-4.316-4.2-4.316v34c3.747 0 6.785-3.122 6.785-6.973z" transform="translate(-144 -335) translate(0 34) translate(16 200) translate(68 101) translate(60) translate(14)"/>
                                            <path fill="#F9F9F9" d="M6.785 32.008c-2.672 0-4.846-2.234-4.846-4.98 0-1.535.673-2.96 1.847-3.913l.737-.598v-18.2c0-1.282 1.015-2.325 2.262-2.325s2.261 1.043 2.261 2.324v18.2l.738.599c1.174.952 1.847 2.378 1.847 3.912 0 2.747-2.174 4.98-4.846 4.98z" transform="translate(-144 -335) translate(0 34) translate(16 200) translate(68 101) translate(60) translate(14)"/>
                                            <path fill="#E2DFF4" d="M6.785 32.008c2.672 0 4.846-2.234 4.846-4.98 0-1.535-.673-2.96-1.847-3.913l-.738-.598v-18.2c0-1.282-1.014-2.325-2.261-2.325v30.016z" transform="translate(-144 -335) translate(0 34) translate(16 200) translate(68 101) translate(60) translate(14)"/>
                                            <g>
                                                <path fill="#FF7D47" d="M3.877 12.257V.997c0-.551-.434-.997-.97-.997-.535 0-.968.446-.968.996v11.261C.81 12.668 0 13.776 0 15.074c0 1.648 1.304 2.989 2.908 2.989 1.603 0 2.908-1.341 2.908-2.989 0-1.298-.81-2.406-1.939-2.817z" transform="translate(-144 -335) translate(0 34) translate(16 200) translate(68 101) translate(60) translate(14) translate(3.877 11.953)"/>
                                                <path fill="#FF405C" d="M3.877 12.257V.997c0-.551-.434-.997-.97-.997v18.063c1.604 0 2.909-1.341 2.909-2.989 0-1.298-.81-2.406-1.939-2.817z" transform="translate(-144 -335) translate(0 34) translate(16 200) translate(68 101) translate(60) translate(14) translate(3.877 11.953)"/>
                                            </g>
                                        </g>
                                    </g>
                                    <g>
                                        <path fill="#FF7D47" d="M5.353 15.955V4.19l1.1 1.178c.449.48 1.175.48 1.623 0 .448-.48.448-1.257 0-1.736L5.016.36C4.57-.12 3.844-.12 3.396.36L.335 3.632c-.447.48-.447 1.256 0 1.736.449.48 1.175.48 1.623 0l1.1-1.178v11.765c0 .677.514 1.227 1.148 1.227.633 0 1.147-.55 1.147-1.227z" transform="translate(-144 -335) translate(0 34) translate(16 200) translate(68 101) translate(60) translate(0 3)"/>
                                        <path fill="#8BB9FF" d="M12.664 21.632c-.448-.48-1.174-.48-1.622 0l-1.1 1.178V11.045c0-.677-.514-1.227-1.148-1.227-.633 0-1.147.55-1.147 1.227V22.81l-1.1-1.178c-.449-.48-1.175-.48-1.623 0-.448.48-.448 1.257 0 1.736l3.06 3.273c.447.479 1.173.479 1.621 0l3.06-3.273c.447-.48.447-1.257 0-1.736z" transform="translate(-144 -335) translate(0 34) translate(16 200) translate(68 101) translate(60) translate(0 3)"/>
                                    </g>
                                    <path fill="#FF405C" d="M7.68 6.805L4.771 3.377C4.558 3.125 4.28 3 4 3v18c.602 0 1.09-.576 1.09-1.286V7.39l1.048 1.233c.426.502 1.116.502 1.542 0 .427-.502.427-1.316 0-1.818z" transform="translate(-144 -335) translate(0 34) translate(16 200) translate(68 101) translate(60)"/>
                                    <path fill="#7D81E7" d="M12.68 26.195l-2.909 3.428C9.558 29.875 9.28 30 9 30V12c.602 0 1.09.576 1.09 1.286V25.61l1.048-1.233c.426-.502 1.116-.502 1.542 0 .427.502.427 1.316 0 1.818z" transform="translate(-144 -335) translate(0 34) translate(16 200) translate(68 101) translate(60)"/>
                                </g>
                            </g>
                        </g>
                    </g>
                </g>
            </g>
        </g>
    </g>
</svg>
