<svg xmlns="http://www.w3.org/2000/svg" width="37" height="37" viewBox="0 0 37 37">
    <defs>
        <linearGradient id="finvgy24za" x1="0%" x2="100%" y1="50%" y2="50%">
            <stop offset="0%" stop-color="#59AFFC"/>
            <stop offset="100%" stop-color="#3FBCEE"/>
        </linearGradient>
        <linearGradient id="x5ufwojlzb" x1="0%" x2="100%" y1="50%" y2="50%">
            <stop offset="0%" stop-color="#59AFFC"/>
            <stop offset="100%" stop-color="#3FBCEE"/>
        </linearGradient>
        <linearGradient id="ci4g4q7tkc" x1="0%" x2="100%" y1="50%" y2="50%">
            <stop offset="0%" stop-color="#59AFFC"/>
            <stop offset="100%" stop-color="#3FBCEE"/>
        </linearGradient>
    </defs>
    <g fill="none" fill-rule="evenodd">
        <g fill-rule="nonzero">
            <g>
                <g>
                    <g>
                        <g>
                            <g>
                                <g>
                                    <path fill="#966F4E" d="M9 3.022l-.005 1.692c-.002.584-.438 1.168-1.306 1.613-1.752.897-4.598.897-6.36 0C.44 5.875-.002 5.283 0 4.69L.005 3c-.001.591.442 1.184 1.329 1.635 1.763.898 4.609.898 6.36 0C8.562 4.19 8.998 3.607 9 3.022z" transform="translate(-137 -380) translate(0 34) translate(16 200) translate(121 146) translate(28 30)"/>
                                    <path fill="#A0795C" d="M7.673.732c1.764.977 1.768 2.561.02 3.535-1.752.977-4.6.977-6.364 0C-.435 3.29-.444 1.71 1.31.732c1.747-.974 4.6-.977 6.364 0z" transform="translate(-137 -380) translate(0 34) translate(16 200) translate(121 146) translate(28 30)"/>
                                </g>
                                <g>
                                    <g>
                                        <path fill="#966F4E" d="M2.799.796l-.08 34.384c0 .201-.13.402-.391.556-.526.31-1.38.308-1.905 0-.267-.156-.4-.36-.4-.564L.104.788c0 .204.133.408.4.564.525.308 1.379.31 1.905 0 .26-.154.39-.355.391-.556z" transform="translate(-137 -380) translate(0 34) translate(16 200) translate(121 146) translate(31.554)"/>
                                        <path fill="#A0795C" d="M2.401.233c.526.307.533.809.007 1.119-.526.31-1.38.308-1.906 0-.529-.31-.532-.81-.006-1.12.526-.31 1.376-.31 1.905 0z" transform="translate(-137 -380) translate(0 34) translate(16 200) translate(121 146) translate(31.554)"/>
                                    </g>
                                    <path fill="#3C4349" d="M25.894 15.565c-.074 0-.149-.02-.216-.062-.194-.122-.254-.38-.135-.576l5.161-8.491-10.339-.846c-.227-.019-.396-.22-.378-.451.019-.23.219-.398.445-.384l11.01.902c.144.011.27.098.335.228s.059.284-.017.408l-5.514 9.073c-.078.128-.213.199-.352.199z" transform="translate(-137 -380) translate(0 34) translate(16 200) translate(121 146)"/>
                                    <g>
                                        <path fill="#EAEAEC" d="M27 13.057c-.008 1.148-.406 1.953-1.05 2.33-1.185.659-2.413 1.31-3.683 1.935-.82.402-1.659.805-2.514 1.19-4.225 1.944-8.814 3.7-13.673 5.326.643-.377 1.041-1.181 1.05-2.329.008-2.09-1.313-4.573-3.04-5.883l-1.075.214.22-.762c-.872-.42-1.65-.428-2.235-.085 3.691-3.46 7.493-6.637 11.413-9.454.71-.514 1.43-1.01 2.15-1.498 1.033-.703 2.074-1.38 3.133-2.03.651-.385 1.337-.086 2.328.497l2.023 1.858C24.028 5.53 27 10.754 27 13.057z" transform="translate(-137 -380) translate(0 34) translate(16 200) translate(121 146) translate(0 3)"/>
                                        <path fill="#EAEAEC" d="M28 11.526c.017-6.1-6.668-12.93-10.028-9.978-.004.002-.009.003-.013.006-.67.42-1.333.84-1.995 1.276-.396.263-.791.525-1.187.796-.421.289-.843.577-1.256.866-.31.218-.619.437-.928.664-.843.612-1.686 1.241-2.52 1.88-.645.498-1.29 1.005-1.935 1.52-1.032.84-2.055 1.697-3.07 2.57-.49.43-.98.858-1.47 1.295-.87.778-1.738 1.573-2.598 2.386.593-.35 1.385-.34 2.27.088l-.223.778 1.092-.219c1.754 1.338 3.096 3.873 3.087 6.006-.008 1.172-.413 1.994-1.066 2.378 1.11-.376 2.21-.752 3.285-1.136.67-.245 1.333-.49 1.987-.726 1.16-.437 2.304-.883 3.43-1.346h.01c.8-.315 1.573-.638 2.347-.98.963-.401 1.9-.821 2.83-1.25.24-.113.481-.218.722-.34.62-.28 1.23-.577 1.832-.875.292-.148.585-.288.868-.446.98-.49 1.944-1.005 2.873-1.53.015-.009.027-.025.042-.035.993-.606 1.609-1.865 1.614-3.648z" transform="translate(-137 -380) translate(0 34) translate(16 200) translate(121 146) translate(0 3)"/>
                                        <path fill="#D9D9DB" d="M7 20.538l-1 .3c.373-.187.64-.531.775-1 .091.232.169.469.225.7z" transform="translate(-137 -380) translate(0 34) translate(16 200) translate(121 146) translate(0 3)"/>
                                        <path fill="#D9D9DB" d="M3.511 15.318c1.935 1.116 3.495 3.818 3.489 6.04-.006 2.216-1.577 3.117-3.511 2-1.93-1.113-3.495-3.824-3.489-6.04.006-2.222 1.582-3.114 3.511-2z" transform="translate(-137 -380) translate(0 34) translate(16 200) translate(121 146) translate(0 3)"/>
                                        <path fill="#5A6268" d="M7.668 6.276C7.66 8.653 5.943 9.616 3.82 8.415 1.715 7.23-.002 4.324.007 1.955c0-.839.217-1.501.587-1.952C.802 2.273 2.42 4.87 4.39 5.985c1.373.769 2.448-.133 3.135-.972.009.159.144 1.104.144 1.263z" opacity=".1" transform="translate(-137 -380) translate(0 34) translate(16 200) translate(121 146) translate(0 3) translate(0 14.838)"/>
                                        <g>
                                            <path fill="url(#finvgy24za)" d="M14.329.896c-.796-.472-1.557-.73-2.252-.799-.385.258-.77.516-1.155.782-.41.283-.82.567-1.222.85.586.112 1.197.353 1.866.748 3.164 1.864 5.717 6.4 5.709 10.128 0 .98-.184 1.795-.52 2.457.603-.275 1.198-.567 1.784-.86.284-.145.569-.283.845-.437 2.027-3.287-.803-10.352-5.055-12.869z" transform="translate(-137 -380) translate(0 34) translate(16 200) translate(121 146) translate(0 3) translate(4 2.838)"/>
                                            <path fill="url(#x5ufwojlzb)" d="M8.67 4.968c-.837-.498-1.624-.739-2.327-.739-.628.49-1.255.988-1.883 1.495.535.094 1.096.318 1.699.679 2.88 1.7 5.206 5.824 5.198 9.226 0 .756-.117 1.409-.343 1.958.778-.309 1.532-.627 2.285-.962 1.707-2.827-.587-9.276-4.629-11.657z" transform="translate(-137 -380) translate(0 34) translate(16 200) translate(121 146) translate(0 3) translate(4 2.838)"/>
                                            <path fill="url(#ci4g4q7tkc)" d="M3.681 8.868c-.803-.472-1.556-.679-2.21-.618-.476.42-.954.841-1.43 1.27.46.078.945.267 1.48.585C4 11.574 6 15.122 5.992 18.043c0 .61-.091 1.134-.259 1.58.653-.24 1.298-.48 1.934-.713.31-.524.485-1.237.485-2.096.009-2.92-1.992-6.477-4.47-7.946z" transform="translate(-137 -380) translate(0 34) translate(16 200) translate(121 146) translate(0 3) translate(4 2.838)"/>
                                        </g>
                                        <path fill="#5A6268" d="M26.377 15.042c-.017.01-.026.027-.043.036-.936.532-1.906 1.056-2.894 1.553-.286.16-.58.302-.875.453-.606.302-1.221.603-1.845.887-.243.125-.485.231-.728.347-.936.434-1.88.86-2.85 1.269-.78.346-1.56.674-2.366.994h-.008c-1.135.47-2.287.923-3.457 1.367-.659.24-1.326.488-2.001.736-1.083.39-2.192.773-3.31 1.154.658-.39 1.066-1.225 1.074-2.414 0-.408-.043-.834-.138-1.27.701-.239 1.395-.478 2.079-.727.676-.249 1.343-.497 2.001-.737 1.17-.443 2.322-.896 3.457-1.367h.009c6.606-2.62 11.483-5.478 11.6-5.538.85-.524 1.43-1.536 1.578-2.947.576 2.182.582 5.058-1.283 6.204z" opacity=".1" transform="translate(-137 -380) translate(0 34) translate(16 200) translate(121 146) translate(0 3)"/>
                                    </g>
                                    <path fill="#3C4349" d="M33.013 6.918c-.982 0-1.759-.452-1.807-.481-.196-.117-.262-.372-.147-.572.114-.199.365-.267.564-.15.055.032 1.394.8 2.566.012.19-.13.445-.075.572.117.126.193.074.453-.116.58-.55.37-1.12.494-1.632.494z" transform="translate(-137 -380) translate(0 34) translate(16 200) translate(121 146)"/>
                                </g>
                            </g>
                        </g>
                    </g>
                </g>
            </g>
        </g>
    </g>
</svg>
